<svg xmlns="http://www.w3.org/2000/svg" viewBox="0 0 400 500">
  <defs>
    <linearGradient id="bgGrad" x1="0%" y1="0%" x2="100%" y2="100%">
      <stop offset="0%" style="stop-color:#1a1a2e"/>
      <stop offset="100%" style="stop-color:#16213e"/>
    </linearGradient>
    <linearGradient id="accentGrad" x1="0%" y1="0%" x2="100%" y2="100%">
      <stop offset="0%" style="stop-color:#6366f1"/>
      <stop offset="100%" style="stop-color:#8b5cf6"/>
    </linearGradient>
    <linearGradient id="cardGrad" x1="0%" y1="0%" x2="0%" y2="100%">
      <stop offset="0%" style="stop-color:#252542"/>
      <stop offset="100%" style="stop-color:#1a1a30"/>
    </linearGradient>
  </defs>
  
  <!-- Background -->
  <rect width="400" height="500" fill="url(#bgGrad)"/>
  
  <!-- Header Bar -->
  <rect x="20" y="20" width="360" height="50" rx="8" fill="url(#cardGrad)"/>
  <circle cx="45" cy="45" r="12" fill="#6366f1"/>
  <rect x="70" y="38" width="80" height="8" rx="4" fill="#4a4a6a"/>
  <rect x="70" y="52" width="50" height="6" rx="3" fill="#3a3a5a"/>
  
  <!-- Main Dashboard Area -->
  <rect x="20" y="85" width="220" height="180" rx="12" fill="url(#cardGrad)"/>
  <rect x="35" y="100" width="120" height="10" rx="5" fill="#6366f1" opacity="0.8"/>
  <rect x="35" y="120" width="80" height="8" rx="4" fill="#4a4a6a"/>
  
  <!-- Chart Area -->
  <rect x="35" y="145" width="190" height="100" rx="8" fill="#0f0f1e"/>
  <polyline points="45,235 75,210 105,220 135,185 165,195 195,165 215,175" 
            fill="none" stroke="url(#accentGrad)" stroke-width="3" stroke-linecap="round" stroke-linejoin="round"/>
  <circle cx="195" cy="165" r="5" fill="#6366f1"/>
  
  <!-- Side Stats Cards -->
  <rect x="255" y="85" width="125" height="85" rx="10" fill="url(#cardGrad)"/>
  <circle cx="280" cy="110" r="15" fill="rgba(99,102,241,0.2)"/>
  <text x="280" y="116" font-family="Arial" font-size="14" fill="#6366f1" text-anchor="middle" font-weight="bold">↑</text>
  <rect x="270" y="135" width="70" height="8" rx="4" fill="#4a4a6a"/>
  <rect x="270" y="150" width="50" height="6" rx="3" fill="#6366f1"/>
  
  <rect x="255" y="180" width="125" height="85" rx="10" fill="url(#cardGrad)"/>
  <circle cx="280" cy="205" r="15" fill="rgba(34,197,94,0.2)"/>
  <text x="280" y="211" font-family="Arial" font-size="14" fill="#22c55e" text-anchor="middle" font-weight="bold">✓</text>
  <rect x="270" y="230" width="70" height="8" rx="4" fill="#4a4a6a"/>
  <rect x="270" y="245" width="40" height="6" rx="3" fill="#22c55e"/>
  
  <!-- Bottom Cards -->
  <rect x="20" y="280" width="170" height="100" rx="10" fill="url(#cardGrad)"/>
  <rect x="35" y="295" width="100" height="8" rx="4" fill="#4a4a6a"/>
  <rect x="35" y="310" width="60" height="6" rx="3" fill="#3a3a5a"/>
  <rect x="35" y="330" width="140" height="35" rx="6" fill="#0f0f1e"/>
  <rect x="45" y="340" width="80" height="6" rx="3" fill="#6366f1" opacity="0.6"/>
  <rect x="45" y="352" width="50" height="6" rx="3" fill="#4a4a6a"/>
  
  <rect x="205" y="280" width="175" height="100" rx="10" fill="url(#cardGrad)"/>
  <rect x="220" y="295" width="100" height="8" rx="4" fill="#4a4a6a"/>
  <rect x="220" y="310" width="60" height="6" rx="3" fill="#3a3a5a"/>
  <!-- Mini bar chart -->
  <rect x="220" y="335" width="15" height="30" rx="3" fill="#6366f1" opacity="0.4"/>
  <rect x="240" y="325" width="15" height="40" rx="3" fill="#6366f1" opacity="0.6"/>
  <rect x="260" y="315" width="15" height="50" rx="3" fill="#6366f1" opacity="0.8"/>
  <rect x="280" y="305" width="15" height="60" rx="3" fill="#6366f1"/>
  
  <!-- Floating Elements -->
  <circle cx="350" cy="420" r="25" fill="url(#accentGrad)" opacity="0.9"/>
  <text x="350" y="428" font-family="Arial" font-size="20" fill="white" text-anchor="middle" font-weight="bold">+</text>
  
  <rect x="30" y="400" width="120" height="50" rx="25" fill="url(#accentGrad)"/>
  <text x="90" y="432" font-family="Arial" font-size="14" fill="white" text-anchor="middle" font-weight="bold">Launch Site</text>
  
  <!-- Decorative Dots -->
  <circle cx="370" cy="60" r="4" fill="#6366f1" opacity="0.5"/>
  <circle cx="385" cy="60" r="4" fill="#8b5cf6" opacity="0.5"/>
  <circle cx="370" cy="75" r="4" fill="#22d3ee" opacity="0.3"/>
</svg>